<svg xmlns="http://www.w3.org/2000/svg" viewBox="0 0 500 500" width="100%" height="100%">
  <defs>
    <style>
      .primary-color { fill: #D34A14; }
      .primary-stroke { stroke: #D34A14; fill: none; stroke-linecap: round; stroke-linejoin: round; }
    </style>
  </defs>

  <path class="primary-color" d="M 180 260 C 130 200, 160 120, 240 90 L 270 75 L 270 40 L 360 110 L 280 190 L 280 140 L 250 150 C 190 170, 190 220, 220 250 Z" />

  <path class="primary-color" d="M 320 240 C 370 300, 340 380, 260 410 L 230 425 L 140 480 L 190 410 L 250 380 C 310 360, 310 310, 280 280 Z" />

  <g class="primary-stroke" stroke-width="6">
    <path d="M 210 270 C 180 250, 190 200, 230 190 C 240 160, 270 160, 280 190 C 320 200, 330 250, 300 270 C 290 300, 260 300, 255 280 C 250 300, 220 300, 210 270 Z" />

    <path d="M 220 220 L 240 220 L 250 240 L 280 240" />
    <path d="M 240 200 L 250 220 L 270 220 L 280 200" />
    <path d="M 255 240 L 255 280" />
  </g>

  <g class="primary-color">
    <circle cx="220" cy="220" r="7" />
    <circle cx="280" cy="240" r="7" />
    <circle cx="240" cy="200" r="7" />
    <circle cx="280" cy="200" r="7" />
  </g>
</svg>
